<?xml version="1.0" encoding="iso-8859-1"?>
<!-- Uploaded to: SVG Repo, www.svgrepo.com, Generator: SVG Repo Mixer Tools -->
<svg fill="#fff" height="800px" width="800px" version="1.1" id="Layer_1" xmlns="http://www.w3.org/2000/svg" xmlns:xlink="http://www.w3.org/1999/xlink" 
	 viewBox="0 0 512 512" xml:space="preserve">
<g>
	<g>
		<path d="M496.59,43.705H297.903c12.754-16.342,21.007-24.915,21.193-25.101c4.245-4.261,4.234-11.212-0.021-15.462
			c-4.256-4.256-11.139-4.155-15.395,0.09c-0.992,0.991-14.228,13.235-33.115,40.472H17.229c-6.022,0-11.804,4.651-11.804,10.667
			v381.31c0,6.017,5.782,11.122,11.804,11.122h246.333c13.049,54.473,41.126,63.918,45.182,64.929
			c0.872,0.218,1.745,0.267,2.607,0.267c4.734,0,8.969-3.209,10.331-7.991c1.617-5.655-1.734-11.518-7.33-13.311
			c-0.255-0.083-17.89-5.762-28.258-43.893H496.59c6.022,0,9.985-5.105,9.985-11.122V54.372
			C506.575,48.356,502.612,43.705,496.59,43.705z M27.214,425.015V65.494h228.283c-12.708,19.065-26.84,42.919-41.017,71.275
			c-44.344,88.683-24.428,107.83,11.735,131.816l2.862,1.877c3.053,2.032,5.82,3.773,8.341,5.369
			c17.818,11.287,19.345,12.296,19.478,83.462c-3.535,0.088-7.16,0.13-10.881,0.13c-119.064,0-141.927-46.622-142.47-47.782
			c-2.298-5.484-8.618-8.108-14.097-5.917c-5.586,2.239-8.309,8.575-6.075,14.166c1,2.5,25.643,61.319,162.187,61.319
			c3.718,0,7.716-0.052,10.44-0.137c0,0.047,0,0.089,0,0.137c0,16.543,1.91,30.187,3.596,43.806H27.214z M484.786,425.015H281.603
			c-1.798-13.618-3.814-26.786-3.814-43.806c0-0.424,0-0.812,0-1.233c108.946-8.444,129.498-57.802,130.413-60.086
			c2.202-5.516-0.231-11.692-5.7-13.996c-5.479-2.319-11.717,0.282-14.121,5.724c-0.191,0.431-18.318,38.913-109.76,46.497
			c-0.184-78.69-2.402-83.494-29.572-100.704c-2.394-1.516-5.008-3.181-7.902-5.107l-2.897-1.931
			c-29.013-19.246-42.256-27.916-4.285-103.859c16.815-33.628,33.689-61.955,47.935-81.02h202.885V425.015z"/>
	</g>
</g>
<g>
	<g>
		<path d="M126.175,97.951c-24.034,0-43.578,19.549-43.578,43.578s19.544,43.578,43.578,43.578
			c24.034,0,43.578-19.549,43.578-43.578S150.209,97.951,126.175,97.951z M126.175,163.318c-12.012,0-21.789-9.772-21.789-21.789
			s9.777-21.789,21.789-21.789c12.012,0,21.789,9.772,21.789,21.789S138.186,163.318,126.175,163.318z"/>
	</g>
</g>
<g>
	<g>
		<path d="M376.75,97.951c-24.034,0-43.578,19.549-43.578,43.578s19.544,43.578,43.578,43.578s43.578-19.549,43.578-43.578
			S400.784,97.951,376.75,97.951z M376.75,163.318c-12.012,0-21.789-9.772-21.789-21.789s9.777-21.789,21.789-21.789
			c12.012,0,21.789,9.772,21.789,21.789S388.761,163.318,376.75,163.318z"/>
	</g>
</g>
</svg>